<?xml version="1.0" encoding="UTF-8"?>
<svg xmlns="http://www.w3.org/2000/svg" xmlns:xlink="http://www.w3.org/1999/xlink" version="1.1" viewBox="0 0 1984.2 2834.6">
  <defs>
    <style>
      .cls-1, .cls-2, .cls-3, .cls-4, .cls-5 {
        fill: none;
      }

      .cls-6 {
        fill: #231f20;
      }

      .cls-7 {
        isolation: isolate;
      }

      .cls-8 {
        fill: #ed1c24;
      }

      .cls-9 {
        clip-path: url(#clippath-17);
      }

      .cls-10 {
        clip-path: url(#clippath-11);
      }

      .cls-11 {
        clip-path: url(#clippath-16);
      }

      .cls-12 {
        clip-path: url(#clippath-18);
      }

      .cls-13 {
        clip-path: url(#clippath-10);
      }

      .cls-14 {
        clip-path: url(#clippath-15);
      }

      .cls-15 {
        clip-path: url(#clippath-13);
      }

      .cls-16 {
        clip-path: url(#clippath-14);
      }

      .cls-17 {
        clip-path: url(#clippath-12);
      }

      .cls-18 {
        mix-blend-mode: multiply;
      }

      .cls-19 {
        clip-path: url(#clippath-1);
      }

      .cls-20 {
        clip-path: url(#clippath-3);
      }

      .cls-21 {
        clip-path: url(#clippath-4);
      }

      .cls-22 {
        clip-path: url(#clippath-2);
      }

      .cls-23 {
        clip-path: url(#clippath-7);
      }

      .cls-24 {
        clip-path: url(#clippath-6);
      }

      .cls-25 {
        clip-path: url(#clippath-9);
      }

      .cls-26 {
        clip-path: url(#clippath-8);
      }

      .cls-27 {
        clip-path: url(#clippath-5);
      }

      .cls-28 {
        fill: #4771b8;
      }

      .cls-29 {
        fill: #fff;
      }

      .cls-2 {
        stroke-width: 1.5px;
      }

      .cls-2, .cls-3, .cls-4, .cls-5 {
        stroke: #231f20;
      }

      .cls-3 {
        stroke-width: 1.2px;
      }

      .cls-4 {
        stroke-width: .9px;
      }

      .cls-30 {
        fill: #4bbea3;
      }

      .cls-5 {
        stroke-width: 1.9px;
      }

      .cls-31 {
        fill: #ef4a82;
      }

      .cls-32 {
        clip-path: url(#clippath);
      }
    </style>
    <clipPath id="clippath">
      <rect class="cls-1" y="0" width="1984.3" height="2834.6"/>
    </clipPath>
    <clipPath id="clippath-1">
      <rect class="cls-1" y="0" width="1984.3" height="2834.6"/>
    </clipPath>
    <clipPath id="clippath-2">
      <path class="cls-1" d="M687.1,2427c0,188.2,150-12.6,338.2-12.6s343.4,200.9,343.4,12.6-152.6-340.8-340.8-340.8-340.8,152.6-340.8,340.8"/>
    </clipPath>
    <clipPath id="clippath-3">
      <rect class="cls-1" x="602.2" y="2123.1" width="851.4" height="851.4"/>
    </clipPath>
    <clipPath id="clippath-4">
      <rect class="cls-1" x="603.2" y="2124.1" width="849.4" height="711.6"/>
    </clipPath>
    <clipPath id="clippath-5">
      <rect class="cls-1" y="0" width="1984.3" height="2834.6"/>
    </clipPath>
    <clipPath id="clippath-6">
      <path class="cls-1" d="M484.1,1528.3c0,300.3,239.3-20.1,539.6-20.1s547.9,320.5,547.9,20.1-243.4-543.8-543.8-543.8-543.8,243.4-543.8,543.8"/>
    </clipPath>
    <clipPath id="clippath-7">
      <rect class="cls-1" x="349.4" y="1044.1" width="1357.1" height="1357.1"/>
    </clipPath>
    <clipPath id="clippath-8">
      <rect class="cls-1" x="350.4" y="1045.1" width="1355.1" height="1355.1"/>
    </clipPath>
    <clipPath id="clippath-9">
      <rect class="cls-1" x="350.4" y="1045.1" width="1355.1" height="1355.1"/>
    </clipPath>
    <clipPath id="clippath-10">
      <rect class="cls-1" y="0" width="1984.3" height="2834.6"/>
    </clipPath>
    <clipPath id="clippath-11">
      <path class="cls-1" d="M588.7,2034c0,242.6,193.3-16.3,435.9-16.3s442.6,258.9,442.6,16.3-196.7-439.2-439.2-439.2-439.2,196.7-439.2,439.2"/>
    </clipPath>
    <clipPath id="clippath-12">
      <rect class="cls-1" x="479.6" y="1642.6" width="1096.6" height="1096.6"/>
    </clipPath>
    <clipPath id="clippath-13">
      <rect class="cls-1" x="480.6" y="1643.6" width="1094.6" height="1094.6"/>
    </clipPath>
    <clipPath id="clippath-14">
      <rect class="cls-1" y="0" width="1984.3" height="2834.6"/>
    </clipPath>
    <clipPath id="clippath-15">
      <path class="cls-1" d="M319.3,899.1c0,391.4,311.8-26.2,703.2-26.2s714.1,417.6,714.1,26.2S1419.3,190.4,1027.9,190.4,319.3,507.7,319.3,899.1"/>
    </clipPath>
    <clipPath id="clippath-16">
      <rect class="cls-1" x="143.9" y="268.3" width="1768" height="1768"/>
    </clipPath>
    <clipPath id="clippath-17">
      <rect class="cls-1" x="144.9" y="269.3" width="1766" height="1766"/>
    </clipPath>
    <clipPath id="clippath-18">
      <rect class="cls-1" x="144.9" y="269.3" width="1766" height="1766"/>
    </clipPath>
  </defs>
  <!-- Generator: Adobe Illustrator 28.7.1, SVG Export Plug-In . SVG Version: 1.2.0 Build 142)  -->
  <g class="cls-7">
    <g id="Layer_12">
      <rect class="cls-29" y="0" width="1984.2" height="2834.6"/>
      <g class="cls-32">
        <path class="cls-6" d="M1928,2347.2c4,0,5.8-2.1,5.8-4.5s-1.7-4.5-5.8-4.5-5.8,2.1-5.8,4.5,1.7,4.5,5.8,4.5M1928,2345.1c-3.1,0-4.2-1-4.2-2.3s1.1-2.3,4.2-2.3,4.2,1,4.2,2.3-1.1,2.3-4.2,2.3M1924,2355.6v-.7c0-2.3,1.6-3.4,4-3.4s4,1,4,3.4v.7h-8.1ZM1933.6,2357.6v-2.9c0-3.1-1.8-5.4-5.6-5.4s-5.6,1.9-5.6,5.4v2.9h11.2ZM1933.6,2361.6v-2.1l-11.2,3.6v2.2l11.2,3.8v-2.1l-2.7-.8v-3.9l2.7-.8ZM1929.3,2365.8l-5.2-1.5h0s5.2-1.4,5.2-1.4v3ZM1933.6,2378.5v-2.1h-5v-3.3h5v-2.1h-11.2v2.1h4.6v3.3h-4.6v2.1h11.2ZM1931.5,2381c.3.5.6,1.1.6,2.1,0,1.7-1.2,3.2-4.1,3.2s-4.1-1.5-4.1-3.2.4-1.7.6-2.1h-1.8c-.2.3-.5,1.2-.5,2.4,0,3.3,2.5,5.1,5.8,5.1s5.8-1.8,5.8-5.2-.2-2-.4-2.4h-1.9ZM1933.6,2391.7v-2.1l-11.2,3.6v2.2l11.2,3.8v-2.1l-2.7-.8v-3.9l2.7-.8ZM1929.3,2395.9l-5.2-1.5h0s5.2-1.4,5.2-1.4v3ZM1933.6,2403v-1.9h-11.2v3l8.4,2.4h0s-8.4,2.3-8.4,2.3v3.1h11.2v-1.9h-9.4s9.4-2.7,9.4-2.7v-1.5l-9.4-2.8h0s9.4,0,9.4,0ZM1928,2428.2c4,0,5.8-2.1,5.8-4.5s-1.7-4.5-5.8-4.5-5.8,2.1-5.8,4.5,1.7,4.5,5.8,4.5M1928,2426c-3.1,0-4.2-1-4.2-2.3s1.1-2.3,4.2-2.3,4.2,1,4.2,2.3-1.1,2.3-4.2,2.3M1921.7,2435.5c-.3,0-.6-.2-.6-.6,0-.6.5-1.2.5-1.8,0-1.2-1.4-1.5-1.9-1.5v1c.3,0,.6.1.6.5,0,.5-.5,1.1-.5,1.8,0,1.2,1.3,1.5,1.9,1.5v-.9ZM1933.6,2431.4v-2.1l-11.2,3.6v2.2l11.2,3.8v-2.1l-2.7-.8v-3.9l2.7-.8ZM1929.3,2435.6l-5.2-1.5h0s5.2-1.4,5.2-1.4v3ZM1928,2448.9c4,0,5.8-2.1,5.8-4.5s-1.7-4.5-5.8-4.5-5.8,2.1-5.8,4.5,1.7,4.5,5.8,4.5M1928,2446.8c-3.1,0-4.2-1-4.2-2.3s1.1-2.3,4.2-2.3,4.2,1,4.2,2.3-1.1,2.3-4.2,2.3M1922.4,2453.4h7.9c.9,0,1.6.3,1.6,1.3s-.1.7-.2.9h1.8c.2-.4.3-1,.3-1.5,0-1.5-1-2.8-3.4-2.8h-7.9v2.1ZM1933.8,2465.7v-1.4l-11.5-2.9v1.4l11.5,2.8ZM1933.6,2478.8v-2h-4.8c-1.1,0-1.9-.4-1.9-1.4s.5-1.1,1.8-1.1h5v-2h-5.3c-1.7,0-3.1.6-3.1,2.4s.9,1.9,1.4,2.2h0c-.4,0-.9,0-1.3,0v1.9c.4,0,.9,0,1.4,0h6.9ZM1936.7,2487.9c.2-.5.5-1.5.5-2.8,0-3-1.8-3.8-4.4-3.8h-6.1c-.4,0-.9,0-1.3,0v1.8c.4,0,.9,0,1.3,0h0c-.7.5-1.4,1-1.4,2.2,0,2.2,2,3,4.3,3,3.3,0,4.1-1.7,4.1-2.9s-.8-1.9-1.4-2.2h0s.8,0,.8,0c1.3,0,2.6.3,2.6,2.2s-.5,2-.7,2.4h1.8ZM1929.4,2486.2c-1.7,0-2.7-.4-2.7-1.4,0-.9.9-1.6,2.7-1.6s2.8.5,2.8,1.8-.8,1.3-2.8,1.3M1923.8,2490.6h-2v2.1h2v-2.1ZM1933.6,2490.7h-8.3v2h8.3v-2ZM1933.3,2500.4c.2-.4.4-1.3.4-2.3,0-1.8-.9-3.1-2.4-3.1s-1.4.5-2.1,1.5l-.6,1c-.4.6-.6.9-1.1.9s-.8-.3-.8-1.1.2-1.3.4-1.8h-1.5c0,0-.3.9-.3,2,0,1.8,1.2,2.9,2.3,2.9s1.8-.9,2.3-1.8l.5-.8c.4-.7.7-.9,1-.9.6,0,.8.6.8,1.3s-.4,1.8-.5,2.1h1.7ZM1928.8,2507c-1.1,0-2.2-.4-2.2-1.5s.7-1.4,2.2-1.4v2.9ZM1931.6,2502.7c.3.4.6.9.6,2.2s-.9,2.1-2.3,2.1v-4.8h-.4c-3.4,0-4.4,1.5-4.4,3.3s1.9,3.4,4.4,3.4,4.1-1.2,4.1-3.8-.4-2.1-.5-2.5h-1.6ZM1924,2517.2v-.7c0-2.3,1.6-3.4,4-3.4s4,1,4,3.4v.7h-8.1ZM1933.6,2519.3v-2.9c0-3.1-1.8-5.4-5.6-5.4s-5.6,1.9-5.6,5.4v2.9h11.2ZM1922.6,2527.1c-.1.4-.4,1-.4,2.1,0,3.4,3,4.4,6.3,4.4s5.2-.8,5.2-3.6-1.4-3.3-3.7-3.3-3.6,1.4-3.6,3,.5,1.7,1.1,2.1h0c-1.4,0-3.7-.4-3.7-2.6s.3-1.5.5-1.8h-1.7ZM1930.1,2531.4c-1.3,0-2.1-.5-2.1-1.4s.9-1.4,2.1-1.4,2.1.4,2.1,1.4-.8,1.4-2.1,1.4M1933.6,2539.4v-2h-11.2v1.7l2.4,2.7,1.4-.9-1.4-1.5h8.9ZM1928,2551.6c2.8,0,5.8-.6,5.8-3.5s-3-3.5-5.8-3.5-5.8.6-5.8,3.5,3,3.5,5.8,3.5M1928,2549.6c-2.5,0-4.3-.3-4.3-1.5s1.8-1.5,4.3-1.5,4.3.3,4.3,1.5-1.8,1.5-4.3,1.5M1933.6,2560.2v-6.4h-1.6v4.1l-.4-.4c-2-1.9-4.3-3.6-6.3-3.6s-3,.9-3,3.2.3,2.3.6,2.8l1.8-.2c-.3-.4-.9-1-.9-2.2s.6-1.5,1.7-1.5c1.7,0,3.6,1.7,5.5,3.4l.9.8h1.7ZM1928,2577.5c-2.5,0-4.6-1.9-4.6-4.4s2.1-4.4,4.6-4.4,4.6,1.9,4.6,4.4-2.1,4.4-4.6,4.4M1928,2578.9c3.2,0,5.8-2.6,5.8-5.8s-2.6-5.8-5.8-5.8-5.8,2.6-5.8,5.8,2.6,5.8,5.8,5.8M1929,2571.4c.9.1,1.4.7,1.4,1.6,0,1.3-1,2-2.4,2s-2.3-.7-2.3-2,.5-1.5,1.3-1.6v-1.2c-1.6.2-2.4,1.4-2.4,2.8,0,2.1,1.5,3.2,3.5,3.2s3.5-1.2,3.5-3.3-.9-2.6-2.5-2.8v1.2Z"/>
      </g>
    </g>
    <g id="Layer_11">
      <g class="cls-19">
        <path class="cls-31" d="M1025.3,2414.4c188.2,0,343.4,200.9,343.4,12.6s-152.6-340.8-340.8-340.8-340.8,152.6-340.8,340.8,150-12.6,338.2-12.6"/>
      </g>
      <g class="cls-22">
        <g class="cls-18">
          <g class="cls-20">
            <g class="cls-21">
              <image width="3540" height="2966" transform="translate(603.2 2124.1) scale(.2)" xlink:href="2016 Cartaz Ogaki Leques 700x1000 cmyk sombra ponteada-1.png"/>
            </g>
          </g>
        </g>
        <line class="cls-4" x1="1027.9" y1="2402.5" x2="1027.9" y2="1942.7"/>
        <line class="cls-4" x1="1027.9" y1="2402.5" x2="987.8" y2="1944.5"/>
        <line class="cls-4" x1="1027.9" y1="2402.5" x2="948.1" y2="1949.7"/>
        <line class="cls-4" x1="1027.9" y1="2402.5" x2="908.9" y2="1958.4"/>
        <line class="cls-4" x1="1027.9" y1="2402.5" x2="870.7" y2="1970.5"/>
        <line class="cls-4" x1="1027.9" y1="2402.5" x2="833.6" y2="1985.8"/>
        <line class="cls-4" x1="1027.9" y1="2402.5" x2="798" y2="2004.3"/>
        <line class="cls-4" x1="1027.9" y1="2402.5" x2="764.2" y2="2025.9"/>
        <line class="cls-4" x1="1027.9" y1="2402.5" x2="732.4" y2="2050.3"/>
        <line class="cls-4" x1="1027.9" y1="2402.5" x2="702.8" y2="2077.4"/>
        <line class="cls-4" x1="1027.9" y1="2402.5" x2="675.7" y2="2107"/>
        <line class="cls-4" x1="1027.9" y1="2402.5" x2="651.3" y2="2138.8"/>
        <line class="cls-4" x1="1027.9" y1="2402.5" x2="629.7" y2="2172.6"/>
        <line class="cls-4" x1="1027.9" y1="2402.5" x2="611.2" y2="2208.2"/>
        <line class="cls-4" x1="1027.9" y1="2402.5" x2="595.9" y2="2245.3"/>
        <line class="cls-4" x1="1027.9" y1="2402.5" x2="583.8" y2="2283.5"/>
        <line class="cls-4" x1="1027.9" y1="2402.5" x2="575.1" y2="2322.7"/>
        <line class="cls-4" x1="1027.9" y1="2402.5" x2="569.9" y2="2362.4"/>
        <line class="cls-4" x1="1027.9" y1="2402.5" x2="568.1" y2="2402.5"/>
        <line class="cls-4" x1="1027.9" y1="2402.5" x2="569.9" y2="2442.6"/>
        <line class="cls-4" x1="1027.9" y1="2402.5" x2="575.1" y2="2482.3"/>
        <line class="cls-4" x1="1027.9" y1="2402.5" x2="583.8" y2="2521.5"/>
        <line class="cls-4" x1="1027.9" y1="2402.5" x2="1068" y2="1944.5"/>
        <line class="cls-4" x1="1027.9" y1="2402.5" x2="1107.8" y2="1949.7"/>
        <line class="cls-4" x1="1027.9" y1="2402.5" x2="1146.9" y2="1958.4"/>
        <line class="cls-4" x1="1027.9" y1="2402.5" x2="1185.2" y2="1970.5"/>
        <line class="cls-4" x1="1027.9" y1="2402.5" x2="1222.2" y2="1985.8"/>
        <line class="cls-4" x1="1027.9" y1="2402.5" x2="1257.8" y2="2004.3"/>
        <line class="cls-4" x1="1027.9" y1="2402.5" x2="1291.6" y2="2025.9"/>
        <line class="cls-4" x1="1027.9" y1="2402.5" x2="1323.5" y2="2050.3"/>
        <line class="cls-4" x1="1027.9" y1="2402.5" x2="1353" y2="2077.4"/>
        <line class="cls-4" x1="1027.9" y1="2402.5" x2="1380.1" y2="2107"/>
        <line class="cls-4" x1="1027.9" y1="2402.5" x2="1404.5" y2="2138.8"/>
        <line class="cls-4" x1="1027.9" y1="2402.5" x2="1426.1" y2="2172.6"/>
        <line class="cls-4" x1="1027.9" y1="2402.5" x2="1444.6" y2="2208.2"/>
        <line class="cls-4" x1="1027.9" y1="2402.5" x2="1460" y2="2245.3"/>
        <line class="cls-4" x1="1027.9" y1="2402.5" x2="1472" y2="2283.5"/>
        <line class="cls-4" x1="1027.9" y1="2402.5" x2="1480.7" y2="2322.7"/>
        <line class="cls-4" x1="1027.9" y1="2402.5" x2="1485.9" y2="2362.4"/>
        <line class="cls-4" x1="1027.9" y1="2402.5" x2="1487.7" y2="2402.5"/>
        <line class="cls-4" x1="1027.9" y1="2402.5" x2="1485.9" y2="2442.6"/>
        <line class="cls-4" x1="1027.9" y1="2402.5" x2="1480.7" y2="2482.3"/>
        <line class="cls-4" x1="1027.9" y1="2402.5" x2="1472" y2="2521.5"/>
      </g>
    </g>
    <g id="Layer_9">
      <g class="cls-27">
        <path class="cls-8" d="M1023.7,1508.2c300.3,0,547.9,320.5,547.9,20.1s-243.5-543.8-543.8-543.8-543.8,243.5-543.8,543.8,239.3-20.1,539.6-20.1"/>
      </g>
      <g class="cls-24">
        <g class="cls-18">
          <g class="cls-23">
            <g class="cls-26">
              <g class="cls-25">
                <image width="5647" height="5647" transform="translate(350.4 1045.1) scale(.2)" xlink:href="2016 Cartaz Ogaki Leques 700x1000 cmyk sombra ponteada-2.png"/>
              </g>
            </g>
          </g>
        </g>
        <line class="cls-2" x1="1027.9" y1="1489.3" x2="1027.9" y2="755.8"/>
        <line class="cls-2" x1="1027.9" y1="1489.3" x2="964" y2="758.6"/>
        <line class="cls-2" x1="1027.9" y1="1489.3" x2="900.5" y2="766.9"/>
        <line class="cls-2" x1="1027.9" y1="1489.3" x2="838.1" y2="780.8"/>
        <line class="cls-2" x1="1027.9" y1="1489.3" x2="777" y2="800"/>
        <line class="cls-2" x1="1027.9" y1="1489.3" x2="717.9" y2="824.5"/>
        <line class="cls-2" x1="1027.9" y1="1489.3" x2="661.2" y2="854"/>
        <line class="cls-2" x1="1027.9" y1="1489.3" x2="607.2" y2="888.4"/>
        <line class="cls-2" x1="1027.9" y1="1489.3" x2="556.4" y2="927.4"/>
        <line class="cls-2" x1="1027.9" y1="1489.3" x2="509.2" y2="970.6"/>
        <line class="cls-2" x1="1027.9" y1="1489.3" x2="466" y2="1017.8"/>
        <line class="cls-2" x1="1027.9" y1="1489.3" x2="427.1" y2="1068.6"/>
        <line class="cls-2" x1="1027.9" y1="1489.3" x2="392.7" y2="1122.5"/>
        <line class="cls-2" x1="1027.9" y1="1489.3" x2="363.1" y2="1179.3"/>
        <line class="cls-2" x1="1027.9" y1="1489.3" x2="338.6" y2="1238.4"/>
        <line class="cls-2" x1="1027.9" y1="1489.3" x2="319.4" y2="1299.4"/>
        <line class="cls-2" x1="1027.9" y1="1489.3" x2="305.6" y2="1361.9"/>
        <line class="cls-2" x1="1027.9" y1="1489.3" x2="297.2" y2="1425.3"/>
        <line class="cls-2" x1="1027.9" y1="1489.3" x2="294.4" y2="1489.3"/>
        <line class="cls-2" x1="1027.9" y1="1489.3" x2="297.2" y2="1553.2"/>
        <line class="cls-2" x1="1027.9" y1="1489.3" x2="305.6" y2="1616.6"/>
        <line class="cls-2" x1="1027.9" y1="1489.3" x2="319.4" y2="1679.1"/>
        <line class="cls-2" x1="1027.9" y1="1489.3" x2="1091.9" y2="758.6"/>
        <line class="cls-2" x1="1027.9" y1="1489.3" x2="1155.3" y2="766.9"/>
        <line class="cls-2" x1="1027.9" y1="1489.3" x2="1217.8" y2="780.8"/>
        <line class="cls-2" x1="1027.9" y1="1489.3" x2="1278.8" y2="800"/>
        <line class="cls-2" x1="1027.9" y1="1489.3" x2="1337.9" y2="824.5"/>
        <line class="cls-2" x1="1027.9" y1="1489.3" x2="1394.7" y2="854"/>
        <line class="cls-2" x1="1027.9" y1="1489.3" x2="1448.6" y2="888.4"/>
        <line class="cls-2" x1="1027.9" y1="1489.3" x2="1499.4" y2="927.4"/>
        <line class="cls-2" x1="1027.9" y1="1489.3" x2="1546.6" y2="970.6"/>
        <line class="cls-2" x1="1027.9" y1="1489.3" x2="1589.8" y2="1017.8"/>
        <line class="cls-2" x1="1027.9" y1="1489.3" x2="1628.8" y2="1068.6"/>
        <line class="cls-2" x1="1027.9" y1="1489.3" x2="1663.2" y2="1122.5"/>
        <line class="cls-2" x1="1027.9" y1="1489.3" x2="1692.7" y2="1179.3"/>
        <line class="cls-2" x1="1027.9" y1="1489.3" x2="1717.2" y2="1238.4"/>
        <line class="cls-2" x1="1027.9" y1="1489.3" x2="1736.4" y2="1299.4"/>
        <line class="cls-2" x1="1027.9" y1="1489.3" x2="1750.3" y2="1361.9"/>
        <line class="cls-2" x1="1027.9" y1="1489.3" x2="1758.6" y2="1425.3"/>
        <line class="cls-2" x1="1027.9" y1="1489.3" x2="1761.4" y2="1489.3"/>
        <line class="cls-2" x1="1027.9" y1="1489.3" x2="1758.6" y2="1553.2"/>
        <line class="cls-2" x1="1027.9" y1="1489.3" x2="1750.3" y2="1616.6"/>
        <line class="cls-2" x1="1027.9" y1="1489.3" x2="1736.4" y2="1679.1"/>
      </g>
    </g>
    <g id="Layer_7">
      <g class="cls-13">
        <path class="cls-30" d="M1024.5,2017.7c242.6,0,442.6,258.9,442.6,16.3s-196.7-439.2-439.2-439.2-439.2,196.7-439.2,439.2,193.3-16.3,435.9-16.3"/>
      </g>
      <g class="cls-10">
        <g class="cls-18">
          <g class="cls-17">
            <g class="cls-15">
              <image width="4562" height="4562" transform="translate(480.6 1643.6) scale(.2)" xlink:href="2016 Cartaz Ogaki Leques 700x1000 cmyk sombra ponteada-3.png"/>
            </g>
          </g>
        </g>
        <line class="cls-3" x1="1027.9" y1="2002.4" x2="1027.9" y2="1409.9"/>
        <line class="cls-3" x1="1027.9" y1="2002.4" x2="976.3" y2="1412.2"/>
        <line class="cls-3" x1="1027.9" y1="2002.4" x2="925" y2="1418.9"/>
        <line class="cls-3" x1="1027.9" y1="2002.4" x2="874.6" y2="1430.1"/>
        <line class="cls-3" x1="1027.9" y1="2002.4" x2="825.3" y2="1445.7"/>
        <line class="cls-3" x1="1027.9" y1="2002.4" x2="777.5" y2="1465.4"/>
        <line class="cls-3" x1="1027.9" y1="2002.4" x2="731.6" y2="1489.3"/>
        <line class="cls-3" x1="1027.9" y1="2002.4" x2="688.1" y2="1517.1"/>
        <line class="cls-3" x1="1027.9" y1="2002.4" x2="647" y2="1548.5"/>
        <line class="cls-3" x1="1027.9" y1="2002.4" x2="608.9" y2="1583.5"/>
        <line class="cls-3" x1="1027.9" y1="2002.4" x2="574" y2="1621.6"/>
        <line class="cls-3" x1="1027.9" y1="2002.4" x2="542.5" y2="1662.6"/>
        <line class="cls-3" x1="1027.9" y1="2002.4" x2="514.8" y2="1706.2"/>
        <line class="cls-3" x1="1027.9" y1="2002.4" x2="490.9" y2="1752"/>
        <line class="cls-3" x1="1027.9" y1="2002.4" x2="471.1" y2="1799.8"/>
        <line class="cls-3" x1="1027.9" y1="2002.4" x2="455.6" y2="1849.1"/>
        <line class="cls-3" x1="1027.9" y1="2002.4" x2="444.4" y2="1899.5"/>
        <line class="cls-3" x1="1027.9" y1="2002.4" x2="437.6" y2="1950.8"/>
        <line class="cls-3" x1="1027.9" y1="2002.4" x2="435.4" y2="2002.4"/>
        <line class="cls-3" x1="1027.9" y1="2002.4" x2="437.6" y2="2054.1"/>
        <line class="cls-3" x1="1027.9" y1="2002.4" x2="444.4" y2="2105.3"/>
        <line class="cls-3" x1="1027.9" y1="2002.4" x2="455.6" y2="2155.8"/>
        <line class="cls-3" x1="1027.9" y1="2002.4" x2="1079.6" y2="1412.2"/>
        <line class="cls-3" x1="1027.9" y1="2002.4" x2="1130.8" y2="1418.9"/>
        <line class="cls-3" x1="1027.9" y1="2002.4" x2="1181.3" y2="1430.1"/>
        <line class="cls-3" x1="1027.9" y1="2002.4" x2="1230.6" y2="1445.7"/>
        <line class="cls-3" x1="1027.9" y1="2002.4" x2="1278.3" y2="1465.4"/>
        <line class="cls-3" x1="1027.9" y1="2002.4" x2="1324.2" y2="1489.3"/>
        <line class="cls-3" x1="1027.9" y1="2002.4" x2="1367.8" y2="1517.1"/>
        <line class="cls-3" x1="1027.9" y1="2002.4" x2="1408.8" y2="1548.5"/>
        <line class="cls-3" x1="1027.9" y1="2002.4" x2="1446.9" y2="1583.5"/>
        <line class="cls-3" x1="1027.9" y1="2002.4" x2="1481.8" y2="1621.6"/>
        <line class="cls-3" x1="1027.9" y1="2002.4" x2="1513.3" y2="1662.6"/>
        <line class="cls-3" x1="1027.9" y1="2002.4" x2="1541.1" y2="1706.2"/>
        <line class="cls-3" x1="1027.9" y1="2002.4" x2="1564.9" y2="1752"/>
        <line class="cls-3" x1="1027.9" y1="2002.4" x2="1584.7" y2="1799.8"/>
        <line class="cls-3" x1="1027.9" y1="2002.4" x2="1600.2" y2="1849.1"/>
        <line class="cls-3" x1="1027.9" y1="2002.4" x2="1611.4" y2="1899.5"/>
        <line class="cls-3" x1="1027.9" y1="2002.4" x2="1618.2" y2="1950.8"/>
        <line class="cls-3" x1="1027.9" y1="2002.4" x2="1620.4" y2="2002.4"/>
        <line class="cls-3" x1="1027.9" y1="2002.4" x2="1618.2" y2="2054.1"/>
        <line class="cls-3" x1="1027.9" y1="2002.4" x2="1611.4" y2="2105.3"/>
        <line class="cls-3" x1="1027.9" y1="2002.4" x2="1600.2" y2="2155.8"/>
      </g>
    </g>
    <g id="Layer_5">
      <g class="cls-16">
        <path class="cls-28" d="M1022.5,872.8c391.4,0,714.1,417.6,714.1,26.2S1419.3,190.4,1027.9,190.4,319.3,507.7,319.3,899.1s311.8-26.2,703.2-26.2"/>
      </g>
      <g class="cls-14">
        <g class="cls-18">
          <g class="cls-11">
            <g class="cls-9">
              <g class="cls-12">
                <image width="7359" height="7359" transform="translate(144.9 269.3) scale(.2)" xlink:href="2016 Cartaz Ogaki Leques 700x1000 cmyk sombra ponteada-4.png"/>
              </g>
            </g>
          </g>
        </g>
        <line class="cls-5" x1="1027.9" y1="848.1" x2="1027.9" y2="-107.8"/>
        <line class="cls-5" x1="1027.9" y1="848.1" x2="944.6" y2="-104.1"/>
        <line class="cls-5" x1="1027.9" y1="848.1" x2="861.9" y2="-93.2"/>
        <line class="cls-5" x1="1027.9" y1="848.1" x2="780.5" y2="-75.2"/>
        <line class="cls-5" x1="1027.9" y1="848.1" x2="701" y2="-50.1"/>
        <line class="cls-5" x1="1027.9" y1="848.1" x2="623.9" y2="-18.2"/>
        <line class="cls-5" x1="1027.9" y1="848.1" x2="550" y2="20.3"/>
        <line class="cls-5" x1="1027.9" y1="848.1" x2="479.6" y2="65.1"/>
        <line class="cls-5" x1="1027.9" y1="848.1" x2="413.5" y2="115.9"/>
        <line class="cls-5" x1="1027.9" y1="848.1" x2="352" y2="172.2"/>
        <line class="cls-5" x1="1027.9" y1="848.1" x2="295.6" y2="233.7"/>
        <line class="cls-5" x1="1027.9" y1="848.1" x2="244.9" y2="299.9"/>
        <line class="cls-5" x1="1027.9" y1="848.1" x2="200.1" y2="370.2"/>
        <line class="cls-5" x1="1027.9" y1="848.1" x2="161.6" y2="444.2"/>
        <line class="cls-5" x1="1027.9" y1="848.1" x2="129.7" y2="521.2"/>
        <line class="cls-5" x1="1027.9" y1="848.1" x2="104.6" y2="600.7"/>
        <line class="cls-5" x1="1027.9" y1="848.1" x2="86.5" y2="682.2"/>
        <line class="cls-5" x1="1027.9" y1="848.1" x2="75.6" y2="764.8"/>
        <line class="cls-5" x1="1027.9" y1="848.1" x2="72" y2="848.1"/>
        <line class="cls-5" x1="1027.9" y1="848.1" x2="75.6" y2="931.5"/>
        <line class="cls-5" x1="1027.9" y1="848.1" x2="86.5" y2="1014.1"/>
        <line class="cls-5" x1="1027.9" y1="848.1" x2="104.6" y2="1095.5"/>
        <line class="cls-5" x1="1027.9" y1="848.1" x2="1111.2" y2="-104.1"/>
        <line class="cls-5" x1="1027.9" y1="848.1" x2="1193.9" y2="-93.2"/>
        <line class="cls-5" x1="1027.9" y1="848.1" x2="1275.3" y2="-75.2"/>
        <line class="cls-5" x1="1027.9" y1="848.1" x2="1354.9" y2="-50.1"/>
        <line class="cls-5" x1="1027.9" y1="848.1" x2="1431.9" y2="-18.2"/>
        <line class="cls-5" x1="1027.9" y1="848.1" x2="1505.9" y2="20.3"/>
        <line class="cls-5" x1="1027.9" y1="848.1" x2="1576.2" y2="65.1"/>
        <line class="cls-5" x1="1027.9" y1="848.1" x2="1642.4" y2="115.9"/>
        <line class="cls-5" x1="1027.9" y1="848.1" x2="1703.9" y2="172.2"/>
        <line class="cls-5" x1="1027.9" y1="848.1" x2="1760.2" y2="233.7"/>
        <line class="cls-5" x1="1027.9" y1="848.1" x2="1811" y2="299.9"/>
        <line class="cls-5" x1="1027.9" y1="848.1" x2="1855.8" y2="370.2"/>
        <line class="cls-5" x1="1027.9" y1="848.1" x2="1894.3" y2="444.2"/>
        <line class="cls-5" x1="1027.9" y1="848.1" x2="1926.2" y2="521.2"/>
        <line class="cls-5" x1="1027.9" y1="848.1" x2="1951.3" y2="600.7"/>
        <line class="cls-5" x1="1027.9" y1="848.1" x2="1969.3" y2="682.2"/>
        <line class="cls-5" x1="1027.9" y1="848.1" x2="1980.2" y2="764.8"/>
        <line class="cls-5" x1="1027.9" y1="848.1" x2="1983.8" y2="848.1"/>
        <line class="cls-5" x1="1027.9" y1="848.1" x2="1980.2" y2="931.5"/>
        <line class="cls-5" x1="1027.9" y1="848.1" x2="1969.3" y2="1014.1"/>
        <line class="cls-5" x1="1027.9" y1="848.1" x2="1951.3" y2="1095.5"/>
      </g>
    </g>
    <g id="Layer_10">
      <path class="cls-6" d="M139.5,1261.6v5h36v-19.3h-4.5c.2.5.3,1,.3,1.5v12.8h-31.7ZM167.1,1285.8l8.4-2.1v-5.7l-36,9.5v6.3l36,9.7v-5.4l-8.4-2.1v-10.2ZM163.5,1295.4l-18-4.5,18-4.5v9ZM175.5,1321.1l-36-9.6v5l30,7.6-30,7.5v5.3l36-9.5v-6.3ZM139.5,1353.4h36v-5h-36v5ZM144.1,1374.1v-6.6c0-.5,0-1,.3-1.5h-4.8v21.3h4.8c-.2-.6-.3-1.1-.3-1.5v-6.6h31.4v-5h-31.4ZM169.7,1399.2h-4c-2.6,0-4.3.6-6.3,3l-8.6,10.6c-.6.7-1.3,1-2.3,1h-2.4c-1.4,0-2.2-.7-2.2-1.8v-9.8c0-.8.1-1.6.5-2.2h-5v13.3c0,3.9,2.3,5.5,5.8,5.5h3.3c2.6,0,4.3-.7,6.3-3.1l8.7-10.6c.5-.6,1.3-.9,2.2-.9h3.1c1.4,0,2.2.7,2.2,2v10.6c0,.8-.1,1.6-.5,2.2h5v-14.2c0-4-2.3-5.5-5.8-5.5M139.5,1450.1h36v-19.7h-4.5c.2.5.3,1,.3,1.5v13.2h-12.5v-9.5c0-.5,0-1,.2-1.5h-4.5c.1.5.2,1,.2,1.5v9.5h-10.7v-12.3c0-.5,0-1,.3-1.5h-4.5v18.8ZM175.5,1475.6h-16.8v-9.5c0-.5,0-1,.2-1.5h-4.5c.1.5.2,1,.2,1.5v9.5h-10.7v-12.3c0-.5,0-1,.3-1.5h-4.5v18.8h36v-5ZM139.5,1521.7h36v-5h-36v5ZM144.1,1543.9c0-1.2.7-1.9,2.2-1.9h6.2c1.4,0,2.2.7,2.2,1.9v9.5h-10.5v-9.5ZM158.4,1541.9v-.4c0-1.9-1.2-4.5-5.6-4.5h-7.6c-3.4,0-5.8,1.6-5.8,5.5v15.8h36v-5h-16.6v-6.8l16.6-5.8v-5.4l-17.1,6.6ZM169.7,1573.2h-30.2v5h29.3c1.4,0,2.2.7,2.2,2v7.5c0,1.2-.7,1.9-2.2,1.9h-29.3v5h30.2c3.4,0,5.8-1.6,5.8-5.5v-10.2c0-3.9-2.4-5.5-5.8-5.5M169.7,1608.8h-4c-2.6,0-4.3.6-6.3,3l-8.6,10.6c-.6.7-1.3,1-2.3,1h-2.4c-1.4,0-2.2-.7-2.2-1.8v-9.8c0-.8.1-1.6.5-2.2h-5v13.3c0,3.9,2.3,5.5,5.8,5.5h3.3c2.6,0,4.3-.7,6.3-3.1l8.7-10.6c.5-.6,1.3-.9,2.2-.9h3.1c1.4,0,2.2.7,2.2,2v10.6c0,.8-.1,1.6-.5,2.2h5v-14.2c0-4-2.3-5.5-5.8-5.5M144.1,1648.3v-6.6c0-.5,0-1,.3-1.5h-4.8v21.3h4.8c-.2-.6-.3-1.1-.3-1.5v-6.6h31.4v-5h-31.4ZM167.1,1678.3l8.4-2.1v-5.7l-36,9.5v6.3l36,9.7v-5.4l-8.4-2.1v-10.2ZM163.5,1687.9l-18-4.5,18-4.5v9ZM166.7,1723.5v-5.2l-21.3-6.2h30.1v-4.7h-36v7.2l21.7,6.2-21.7,6.1v7.6h36v-4.7h-30.1l21.3-6.2ZM139.5,1775.5h36v-5h-36v5ZM158.7,1801.8c0-1.3.6-1.8,2.3-2.5l14.5-5.8v-5.8l-15.9,6.6c-1.6.7-2.7,1.7-3,3-.5-1.2-1.5-2.3-2.7-2.8l-14.3-6.1v5.5l12.7,5.2c1.5.6,2.3,1.4,2.3,2.6v3.9h-15v5h36v-5h-16.8v-4ZM167.1,1830l8.4-2.1v-5.7l-36,9.5v6.3l36,9.7v-5.4l-8.4-2.1v-10.2ZM163.5,1839.6l-18-4.5,18-4.5v9ZM169.7,1859h-15.2v9.4c0,.5,0,1-.2,1.5h4.5c-.1-.5-.2-1-.2-1.5v-4.5h10.1c1.4,0,2.2.7,2.2,2v7.5c0,1.2-.7,1.9-2.2,1.9h-22.6c-1.4,0-2.2-.7-2.2-2v-11.2c0-.8.1-1.6.5-2.2h-5v14.8c0,3.9,2.4,5.5,5.8,5.5h24.4c3.4,0,5.8-1.6,5.8-5.5v-10.2c0-3.9-2.4-5.5-5.8-5.5M169.7,1916.5c3.4,0,5.8-1.6,5.8-5.5v-10.2c0-3.9-2.4-5.5-5.8-5.5h-24.4c-3.4,0-5.8,1.6-5.8,5.5v10.2c0,3.9,2.4,5.5,5.8,5.5h24.4ZM168.8,1900.2c1.4,0,2.2.7,2.2,2v7.5c0,1.2-.7,1.9-2.2,1.9h-22.6c-1.4,0-2.2-.7-2.2-2v-7.5c0-1.2.7-1.9,2.2-1.9h22.6Z"/>
    </g>
    <g id="Layer_8">
      <path class="cls-6" d="M259,196.3c-1.6,2.3-4.3,2.9-10.2,2.9h-76.1c6.8,37.9,31.7,74.1,87.4,94.8l-.2,2.5c-15.1,3.1-23.9,12.9-26.4,30.1-43.6-28-57.7-79-63-120.3h-.2c-6.8,48.9-28.2,91.3-104,120.3l-1.6-2.7c54.9-36.8,70.2-78.4,74.5-124.6h-73.3l-1-3.3h74.5c1.4-17.6,1.4-42,1.4-63l41.3,3.7c-.2,2.9-1.8,4.7-8.2,5.3-.4,18.6-.6,36.6-2.5,54h40.1l16.8-21.5,30.7,21.9Z"/>
      <path class="cls-6" d="M175.2,476.7h34.2v-41.1h-34.2v41.1ZM209.4,391.6h-34.2v40.7h34.2v-40.7ZM239.1,485.7c-.2,2.5-13.7,10.2-24.8,10.2h-4.9v-16h-34.2v9.2c0,.8-4.5,11.3-29.1,11.3v-124l30.1,11.9h31.1l11.1-14.5,28.7,20.5c-1.2,1.6-3.9,3.5-8,4.5v87ZM258.1,356c-1.4,2.3-4.5,2.9-10,2.9h-113.8l-.8-3.3h83.7l14.5-20.1,26.4,20.5ZM233.6,495.8l28.2,22.7c-1.6,2.3-4.7,2.9-10.4,2.9H115.9l-.8-3.3h103l15.6-22.3ZM112.6,461l28.7-4.3.4,1.8c-11.9,8.8-31.3,21.5-60.6,37.9-1.2,2.7-3.7,4.9-6.3,5.5l-13.1-34.6c4.9-.4,12.7-1.4,22.3-2.5v-66.3h-19l-.8-3.3h19.9v-54.6l36.6,3.5c-.4,2.9-2.3,4.3-8,5.1v45.6l10.6-19.6,19,20.5c-1.6,2.3-4.7,2.9-9.8,2.9h-19.9v62.4Z"/>
      <path class="cls-6" d="M154.2,681.4c-5.1-1.8-14.1-3.3-20.1-3.3-14.5,0-23.3,5.3-23.3,11.7s8,11.9,24.2,11.9,19.2-6.3,19.2-16.4v-3.9ZM132.1,558c1.8-6.1,8.4-12.1,17.8-12.1,16.4,0,30.5,8.4,30.5,15.6s-3.3,6.3-3.9,10c-.2,1-.6,4.3-.8,8,21.9-2.5,29.5-9.4,30.5-12.3l2-.6c10.2,3.1,27.6,3.7,27.6,14.7s-15.1,13.3-61.2,17.6c-.2,3.5.2,20.9.2,24.8,3.1-.2,25.6-2.9,25.6-7.4s-1.2-3.7-3.7-5.5l2-1.8c5.5,3.1,6.8,4.7,12.3,4.9,7.4.2,18.6,2.9,18.6,10,0,11.1-10.8,14.3-54.2,18,.4,7.8.6,15.1,1.4,20.3.4,2.5.8,4.7,1,7.2,13.1,3.7,31.7,11.1,39.5,17,9.4,7.2,12.3,13.7,12.3,21.1s-7,11.7-13.5,11.7-12.3-3.5-16.8-9.4c-4.5-5.7-11.1-11.9-19.6-16.8v6.5c0,14.7-13.5,25-42.8,25.2-29.3,0-43.8-14.9-43.8-31.9s19.6-27.6,43.8-27.6,12.5.2,17.2.6c-.2-4.9-1.2-21.9-1.2-22.3-5.9.4-16.6.8-23.5.8-19.2,0-30.7-6.3-30.7-16.6.2-6.8,5.5-13.5,17-19.4l1.6,1.6c-3.9,3.5-5.7,6.8-5.7,11.1s4.3,6.5,16.8,6.5,17-.6,24.2-1.2c-.2-9-.6-17.8-.8-25.8-8.6.4-19.2.8-25.8.8-24.2,0-35.2-4.1-39.7-26.6l1.8-1c5.1,6.1,17,10.4,27.8,10.4s26.2-.8,35.6-1.8c0-16.4-.8-24.4-13.5-24.4s-3.5.2-5.5.6l-.4-.4Z"/>
      <path class="cls-6" d="M117.5,882.6c28.4-3.9,57.3-15.4,71.6-25.6,17.2-12.5,27.4-30.7,27.4-47.9s-9.2-43-34-43-44.8,11.5-64.7,28.9c-3.7,3.3-10.2,11.5-17.4,11.5-19,0-30.5-14.9-30.5-28.7s2.7-11.7,5.7-13.7l1.2.6c.4,6.3,5.1,13.7,14.3,13.7,19,0,51.8-23.1,94.2-23.1s63.4,17.8,63.4,56.3-12.3,43-32.5,54.6c-22.9,13.3-54.9,18.4-98,20.1l-.8-3.7Z"/>
      <path class="cls-6" d="M109.5,909c1.4-2.3,6.3-3.5,9.2-3.5,13.3,0,24.6,15.6,24.6,26.8s-2,12.3-6.8,18.6c-4.5,6.1-9.8,18-9.8,29.1s.2,5.3,1,7.8l1,.2c9.6-24.6,25-58.7,50.1-58.5,7.2.2,17,1.8,25.2,10.6,8.4,9.4,14.5,23.5,14.5,54.2,0,44.4-19.2,77.4-90.3,92.3l-1.6-2.3c49.9-18.4,60.2-61.6,60.2-87.4s-1.8-54.9-16-54.9c-16.8-.2-29.5,23.5-32.5,60,.6,3.1,1,6.3,1,9.4,0,9.6-3.3,17.8-10.6,17.8-16,0-23.9-21.3-23.9-36,0-33.6,12.1-50.3,12.1-65.1s0-17.4-7.2-19l-.2-.2Z"/>
    </g>
    <g id="Layer_2">
      <rect class="cls-1" width="1984.2" height="2834.6"/>
    </g>
  </g>
</svg>