<?xml version="1.0" encoding="UTF-8"?>
<svg id="Layer_1" data-name="Layer 1" xmlns="http://www.w3.org/2000/svg" viewBox="0 0 1927.6 2777.7">
  <defs>
    <style>
      .cls-1 {
        fill-rule: evenodd;
      }

      .cls-1, .cls-2 {
        fill: #fff;
      }
    </style>
  </defs>
  <g id="fundo">
    <rect width="1927.6" height="2777.7"/>
    <g>
      <path class="cls-1" d="M1880.1,2537.4v-1.8c0-.5,0-1,.2-1.4.1-.3.3-.6.6-.9.4-.4,1-.7,1.7-.9s1.7-.3,2.9-.3,2.1,0,2.9.3c.7.2,1.2.5,1.6.9.5.5.7,1.4.7,2.8v1.2h-10.6v.1ZM1889.5,2536c0-.9-.3-1.5-.8-1.7-.5-.3-1.6-.5-3.1-.5s-2.8.1-3.4.4c-.6.3-.9.8-.9,1.6v.2h8.2Z"/>
      <polygon class="cls-1" points="1880.1 2529.1 1880.1 2525.3 1881.4 2525.3 1881.4 2527.6 1884.7 2527.6 1884.7 2525.5 1885.9 2525.5 1885.9 2527.6 1889.6 2527.6 1889.6 2525.3 1890.8 2525.3 1890.8 2529.1 1880.1 2529.1"/>
      <path class="cls-1" d="M1880.4,2518.6h1.4c-.3.4-.5.8-.5,1.2s.1.7.4.9.6.4,1,.4.7,0,1-.3c.1,0,.3-.2.6-.4l.8-.8c.6-.6,1.1-1,1.5-1.2s.9-.3,1.5-.3c.8,0,1.5.2,2,.7s.8,1.1.8,1.8-.2,1.1-.5,1.6h-1.4c.4-.5.6-1,.6-1.4s-.1-.7-.4-.9-.6-.3-1.1-.3-.7,0-1,.3c-.1,0-.3.2-.5.4s-.4.4-.6.6c-.4.4-.7.7-1,.9s-.5.4-.7.5c-.4.2-.9.3-1.5.3s-1.5-.2-2-.6c-.5-.4-.7-1-.7-1.8s.1-1,.4-1.5l-.1-.1Z"/>
      <rect class="cls-2" x="1880.1" y="2513.6" width="10.6" height="1.4"/>
      <path class="cls-1" d="M1885.2,2507.6v-2.6h.4c2.1,0,3.5.2,4.2.5.7.4,1.1,1,1.1,2s-.4,1.7-1.2,2.2c-.8.4-2.2.6-4.2.6s-3.7-.2-4.5-.7c-.7-.4-1-1.1-1-2s.2-1.2.5-1.6c.3-.4.9-.7,1.7-.9l.6,1.3c-.3,0-.5.1-.7.2-.2,0-.3.2-.4.2-.2.2-.3.4-.3.8s.3.8.9,1,1.7.3,3.3.3,2.7,0,3.3-.3c.6-.2.9-.5.9-1s-.2-.8-.6-1-1.1-.3-2.1-.3h-.5v1.2h-1.2l-.2.1Z"/>
      <path class="cls-1" d="M1880.1,2501.8v-1.3l4.2-1.4c1.2-.4,2.5-.8,3.8-1.1-.8.1-1.6.2-2.2.3h-5.9v-1.4h10.6v1.3l-4.8,1.6c-.4.1-.9.3-1.4.4-.5.1-1,.2-1.5.4h-.5,1.6l1.3-.2h5.3v1.3h-10.6l.1.1Z"/>
      <polygon class="cls-1" points="1879.1 2483.8 1879.1 2482.7 1893.7 2489 1893.7 2490.1 1879.1 2483.8"/>
      <path class="cls-1" d="M1880.1,2474.7v-1.4h8.2c.8,0,1.4.1,1.8.4.5.4.8.9.8,1.7s0,.9-.3,1.2h-1.4c.2-.4.4-.7.4-1,0-.6-.4-.9-1.3-.9h-8.2Z"/>
      <path class="cls-1" d="M1885.7,2464.5c1.9,0,3.2.2,4,.6.8.4,1.2,1.1,1.2,2.1s-.4,1.8-1.3,2.2c-.8.4-2.3.6-4.4.6s-3.2-.2-4-.6c-.8-.4-1.2-1.1-1.2-2.1s.3-1.6.9-2c.4-.3,1-.5,1.7-.6s1.7-.2,3.1-.2h0ZM1885.9,2466c-1.8,0-3.1,0-3.7.2s-.9.5-.9,1,.3.8.8,1c.6.2,1.7.2,3.4.2s2.6,0,3.2-.3c.6-.2.9-.5.9-1s-.3-.8-.8-1-1.5-.3-2.9-.3v.2Z"/>
      <path class="cls-1" d="M1880.1,2459.7v-1.1l10.6-2.3v1.4l-2.1.4v2.1l2.1.4v1.4l-10.6-2.3h0ZM1887.6,2458.4l-1.7.3c-1.2.2-2.4.4-3.7.5.6,0,1.3.1,1.9.2.7.1,1.3.2,2.1.4l1.4.3v-1.7h0ZM1877.7,2458.2v-.8c.4,0,.8,0,1,.3.2.2.4.4.4.8s0,.4-.3.8c-.1.3-.2.5-.2.6s.1.3.4.3v.8h-.6c-.2,0-.3-.1-.5-.2-.1,0-.2-.2-.3-.3,0-.1-.1-.3-.1-.4s0-.4.3-.9c.1-.3.2-.5.2-.6s-.1-.2-.4-.2l.1-.2Z"/>
      <path class="cls-1" d="M1885.7,2448.4c1.9,0,3.2.2,4,.6.8.4,1.2,1.1,1.2,2.1s-.4,1.8-1.3,2.2c-.8.4-2.3.6-4.4.6s-3.2-.2-4-.6c-.8-.4-1.2-1.1-1.2-2.1s.3-1.6.9-2c.4-.3,1-.5,1.7-.6s1.7-.2,3.1-.2h0ZM1885.9,2449.9c-1.8,0-3.1,0-3.7.2s-.9.5-.9,1,.3.8.8,1c.6.2,1.7.2,3.4.2s2.6,0,3.2-.3c.6-.2.9-.5.9-1s-.3-.8-.8-1-1.5-.3-2.9-.3v.2Z"/>
      <path class="cls-1" d="M1880.1,2439.9v-1.2l4.3-.9c.5-.1,1.1-.2,1.6-.3.5,0,1.1-.2,1.7-.3h-.2l-1.2-.2-1.2-.2-.8-.2-4.3-.8v-1.2l10.6-1v1.4l-3.6.2h-3.6.2c.3,0,.5.1.7.1h.5l1,.2h.4l4.6,1v1l-4,.8c-.5.1-1.1.2-1.6.3-.5,0-1.1.2-1.7.2l7.3.4v1.3l-10.6-.9-.1.3Z"/>
      <path class="cls-1" d="M1880.1,2429v-1.1l10.6-2.3v1.4l-2.1.4v2.1l2.1.4v1.4l-10.6-2.3h0ZM1887.6,2427.7l-1.7.3c-1.2.2-2.4.4-3.7.5.6,0,1.3.1,1.9.2.7.1,1.3.2,2.1.4l1.4.3v-1.7h0Z"/>
      <path class="cls-1" d="M1880.3,2418.9h1.3c-.2.4-.3.7-.3.9s0,.6.3.9c.2.2.4.4.8.6.3.2.8.3,1.3.4.5,0,1.2.1,1.9.1,2.6,0,3.9-.7,3.9-2s0-.5-.2-.8h1.3c.2.3.3.7.3,1.2,0,2.2-1.8,3.2-5.3,3.2s-3.3-.3-4.2-.8c-.9-.5-1.4-1.3-1.4-2.4s.1-.8.3-1.2v-.1Z"/>
      <polygon class="cls-1" points="1880.1 2415.9 1880.1 2414.4 1884.3 2414.4 1884.3 2412.3 1880.1 2412.3 1880.1 2410.9 1890.8 2410.9 1890.8 2412.3 1885.5 2412.3 1885.5 2414.4 1890.8 2414.4 1890.8 2415.9 1880.1 2415.9"/>
      <path class="cls-1" d="M1880.1,2406v-1.1l10.6-2.3v1.4l-2.1.4v2.1l2.1.4v1.4l-10.6-2.3h0ZM1887.6,2404.6l-1.7.3c-1.2.2-2.4.4-3.7.5.6,0,1.3.1,1.9.2.7.1,1.3.2,2.1.4l1.4.3v-1.7h0Z"/>
      <path class="cls-1" d="M1880.1,2399.9v-1.8c0-.5,0-1,.2-1.4.1-.3.3-.6.6-.9.4-.4,1-.7,1.7-.9s1.7-.3,2.9-.3,2.1,0,2.9.3c.7.2,1.2.5,1.6.9.5.5.7,1.4.7,2.8v1.2h-10.6v.1ZM1889.5,2398.5c0-.9-.3-1.5-.8-1.7-.5-.3-1.6-.5-3.1-.5s-2.8.1-3.4.4c-.6.3-.9.8-.9,1.6v.2h8.2Z"/>
      <path class="cls-1" d="M1885.7,2386.2c1.9,0,3.2.2,4,.6.8.4,1.2,1.1,1.2,2.1s-.4,1.8-1.3,2.2c-.8.4-2.3.6-4.4.6s-3.2-.2-4-.6c-.8-.4-1.2-1.1-1.2-2.1s.3-1.6.9-2c.4-.3,1-.5,1.7-.6s1.7-.2,3.1-.2h0ZM1885.9,2387.7c-1.8,0-3.1,0-3.7.2s-.9.5-.9,1,.3.8.8,1c.6.2,1.7.2,3.4.2s2.6,0,3.2-.3c.6-.2.9-.5.9-1s-.3-.8-.8-1-1.5-.3-2.9-.3v.2Z"/>
    </g>
  </g>
</svg>