<?xml version="1.0" encoding="UTF-8"?>
<svg id="Layer_1" data-name="Layer 1" xmlns="http://www.w3.org/2000/svg" xmlns:xlink="http://www.w3.org/1999/xlink" viewBox="0 0 1927.6 2778">
  <defs>
    <style>
      .cls-1 {
        fill: none;
      }

      .cls-2 {
        fill: url(#radial-gradient);
      }

      .cls-3 {
        fill: url(#radial-gradient-2);
        fill-rule: evenodd;
      }

      .cls-4 {
        clip-path: url(#clippath);
      }
    </style>
    <radialGradient id="radial-gradient" cx="2634.6" cy="3357.4" fx="2634.6" fy="3357.4" r="199.2" gradientTransform="translate(-3265.11 1500.82) rotate(45) scale(1 -1)" gradientUnits="userSpaceOnUse">
      <stop offset="0" stop-color="#4978bc"/>
      <stop offset="1" stop-color="#002f6b"/>
    </radialGradient>
    <clipPath id="clippath">
      <path class="cls-1" d="M859.3,1032.5c0,64.01,51.89,115.9,115.9,115.9h0c64.01,0,115.9-51.89,115.9-115.9h0c0-64.01-51.89-115.9-115.9-115.9h0c-64.01,0-115.9,51.89-115.9,115.9Z"/>
    </clipPath>
    <radialGradient id="radial-gradient-2" cx="940.3" cy="1781.8" fx="940.3" fy="1781.8" r="191.4" gradientTransform="translate(0 2778) scale(1 -1)" gradientUnits="userSpaceOnUse">
      <stop offset="0" stop-color="#76c152"/>
      <stop offset=".2" stop-color="#76c152"/>
      <stop offset="1" stop-color="#004213"/>
    </radialGradient>
  </defs>
  <g id="camada15">
    <circle class="cls-2" cx="975.2" cy="1032.5" r="115.9" transform="translate(-444.46 991.98) rotate(-45)"/>
    <g class="cls-4">
      <path class="cls-3" d="M987.6,930.2s.3-.6,1.5-.3c.8.2,0-.4,0-.4,0,0,.3.1,1.1.7,2.4,1.5,2.1.6,3.1,2.1s0,1.3,1.6,1.7c1.2.2,1.5,0,1.6,0v.4c0,.8-.2,1,.3,1.2s.9.5.9.5l1.5,1,.2.7s0,.3.2.3.3.3.3.3l.9.2s0-.2.3.1c.2.3.5.4.5.7s.3,1,0,1-.7.2-.7.2c0,0-.2.8-.2,1v1s-.1,2.1-.3,1.9c-.2-.2-.4-.3-.7,0-.3.4-.6.7-.6.7v.5c-.1,0-.5.3-.5.3,0,0-.1,0-.3.2s-.7.7-.9.7h-1c-.3,0-.7.3-.8,0s-.8.1-.7-.6c0-.7.5.2,0-.9-.4-1.1-.4-2.6-1-2.9-.6-.3-1.3-.4-1.3-.9s-.5-1.3-.5-1.3c0,0-.5-.5-.7-.3-.3.2-1.1.2-1,.5.1.2-.2.8-.2.8,0,0-.2.1-.2.3s-.2.5,0,.6c.1.2.5.6.5.6,0,0-.3.9-.3,1.1v1.1l-1.4.7s-1.3-.2-1.4-.3c-.1-.2-1.3-1.3-1.3-1.3,0,0-.5,0-.5-.8s-.3,0,.1-1.1c.4-1.1.5-1.1.4-1.4,0-.3-.6-.7-.4-1,.2-.3.1-.7.3-.8.2,0,.4-.3.4-.3,0,0,.7-.2,1.1-.2s.6,0,1,.2,1,.6,1,.6h.6l.8.2s0,.3.3,0c.3-.2,1-.3,1-.5s-.3-.8-.4-1c0-.2-.3-1.1-.6-1.1s-1-.2-1.1-.6-1.1-1-1.1-1.2-.6-.8-.7-1c-.1-.2-.7-.9-.6-1.1,0-.2-.4-.4-.6-.6s-.3-.3-.3-.6-.1-.3,0-.6c0-.3.9-.9.9-.9l-.1-.1ZM958.6,906.9l3.4,9.8-2.1,2.1-1.2,1.2c-.9.9-.6,1.8-1.8,2.4-1.2.6-2.4,1.8-2.4,1.8,0,0-.3,1.5-1.8,2.1s-2.8,1.2-2.8,1.2c0,0-1.2,3.7-2.1,4.3-.9.6-1.2.9-2.4,1.2s-2.8.9-2.8,1.8-2.4,3.4-2.4,3.4l-3.7.6s-1.2.6-1.5-.3c-.3-.9-.6-1.8-.6-2.8s-.9-1.8,0-2.8c.9-.9.9-2.8.9-2.8,0,0,.6-1.5,0-2.4-.4-.6-1.2,0-1.3,0,0,0,.1-.2.7-.9,1-1.2,1.6-.6,1.7-.7,0,0,0-.3-.2-1.2-.6-2.4-3.1-2.1-2.8-4,.3-1.8-3.7-6.4,8.3-8.3,11.9-1.8,17.1-6.1,17.1-6.1l-.2.4ZM1077.5,1102.6c-1.2-3.1-1.8-5.5-3.1-7.3-1.2-1.8-.6-2.1-1.5-3.4s-1.8-.3-2.8-.9c-.9-.6-1.2-.6-1.2-3.1s1.2-5.2-.6-7c-1.8-1.8-2.8-2.1-2.8-3.4s-1.5-2.1-1.8-3.7c-.3-1.5.3-4.3-.6-5.5s-2.1-2.7-1.5-4c.6-1.2,1.5-2.4,1.5-3.7s1.8-3.7.3-6.4c-1.5-2.8-2.4-5.8-2.4-6.7s.3-2.7-1.5-3.4c-1.8-.6-4.9-3.7-4.9-5.2s.6-2.8.9-5.2c.3-2.4.3-3.4.3-3.4,0,0-1.8-.9-2.8-.9h-3.1s-.6,1.5-2.1,1.5-4-2.1-4-2.1c0,0-4.3,1.5-5.2,2.4-.9.9-.9,1.5-2.8,3.1-1.8,1.5-4.6,1.2-6.1,1.8-1.5.6-1.8.9-3.1,2.1-1.2,1.2-2.4.3-3.4.9-.9.6-2.1,3.1-2.1,3.1,0,0-1.8.9-2.8.3-.9-.6.3-2.1-3.7-1.8-4,.3-7,1.5-8,1.5s-3.1-.9-3.1-2.1-.9-3.4-.9-3.4c0,0-2.4-2.8-3.4-2.1-.9.6-1.5.9-1.5-1.5s0-3.7.6-5.2.6-3.1.3-4.3-.6-1.5-1.2-2.4c-.6-.9-1.8-1.8-2.1-5.2s3.1-7.9,3.1-7.9l.3-3.7s-.3-4,1.8-4.9,4-1.2,4.3-3.1c.3-1.8,0-4,0-5.2s-.3-3.4-.3-4.3.6-.9.6-1.8v-2.4c0-.9,2.8-.9,2.8-.9,0,0,.9.6,1.8-.6.9-1.2,4-3.4,4-3.4,0,0,1.8-1.5,2.8-1.8.9-.3,5.5-2.1,5.5-2.1l5.5-4,.3-2.4s1.5-1.2,2.4-1.2,2.1-.3,1.5,1.5-.6,2.4,2.4,2.8c3.1.3,4.3.3,4.3.3l6.7,2.1s2.4-.9,2.8-1.8c.3-.9,1.8-3.4,1.8-3.4l3.4-3.7s2.4-1.5,3.4-1.8c.9-.3,2.4-1.5,2.8-2.4.3-.9-.3-2.8-.3-2.8l-1.5-3.1s-1.2-.6-2.4,0c-1.2.6-1.5,1.8-2.4.6s-2.8-2.4-2.8-2.4c0,0-1.8-1.2-1.8,0s.9,2.4-.6,2.4-3.7.3-3.7.3l-4.3,1.2s.3-1.8-.6-2.1-3.1-2.4-3.1-2.4c0,0-.3-1.5-1.5-1.5s-3.4.3-3.4.3l-2.1.6s-1.8.3-.3.9c1.5.6,3.4,1.5,3.4,1.5l2.4,1.2,1.2,1.2,1.8.9-.3,1.2h-1.5l-.9.9-.3,1.2-1.5.9s-.9,0-.9-.9v-1.8l-1.8-1.5-2.8-.6-2.8-.9-1.2-.6-.9-1.5s-.9-1.2-1.5-.3-2.8,2.4-2.8,2.4c0,0-.3,1.2-1.5,2.1-1.2.9-1.8,2.1-1.8,3.1v2.4l-1.2,2.1s0,.6.6,1.5.9,1.8.9,1.8v2.1l-.3,1.8-1.2.9s-1.5-.6-1.8.3c-.3.9-1.5,1.5-1.5,1.5l-1.8.6-2.4.9-1.2.6-.6,1.5s0,1.2-.9,1.2-2.1-1.2-2.1-1.2l-1.5-1.2-.6-1.5-.3-1.5v-2.1l-.6-1.8s.6-.9,0-1.8c-.6-.9-2.1-1.5-2.1-1.5v-2.8l1.8-.6,3.7-.6,2.4-1.5,1.5-.9-1.8-3.1s0-1.2-.9-1.5-1.8-.9-1.8-.9l-1.8-1.5-1.2-1.8,3.1-2.4,2.1-1.5s.6-1.5.6-2.4-.9-1.8-.9-1.8l-.9-1.5s2.8.9,2.8-1.8-1.2-5.2-1.2-5.2c0,0-.9-.9-.9-1.8s.2-1.8,0-2.8c-.2-.9.3-1.8.3-1.8l-.6-.9-2.1,2.4-1.2,1.8s-2.1-.3-2.4-1.2c-.3-.9-.3-2.1-1.2-2.4-.9-.3-1.2-.9-2.1-1.8s-1.3-.3-1.2-2.4c0-2.1-.9-2.4-.9-3.4s.3-1.5,1.2-2.1,1.2-2.1,3.1-3.1c1.8-.9,12.2-2.4,12.2-2.4l38.2,14.4,37.3,17.1s10.7,28.1,11.6,29,24.5,76.1,24.5,76.1l-13.5,34.9-27.8,18-.7-.2ZM857.7,1007.1c.7,0,5.4,2.9,5.4,3.6s-1,1.5-.2,2.5c.7,1,1.9,1.9,1.8,2.7-.1.7-1,3.9-1,4.4s.4,3.3.4,3.3c0,0,1.5,1,1.6,1.5s0,.6.1,1.3c.1.6,0,1.6.2,1.9,0,0,0,.2.2,1.1.3,1.7.6,3.8.9,4.3.2.4.2.5.5,1.7s1.4,2.3,1.4,2.3l1.8.9s1.3.2,1.6.2,1.7-1.2,2.7-1.7.3-1.7,1.8-.5,1.2,1,2.6.4c1.4-.5,5.1-.5,5.1-.5,0,0,2.5,1.6,3.1,2.2s2.2,3.1,2.2,3.1c0,0,2.3,1.3,3.5,1.3s1-.9,2.5.2.2.7,2.1,1.6c1.9.9,3.3,2.4,3.7,3,.3.6-.5,1.9,1.5,3,1.9,1,2.6.6,3.8,1.9,1.1,1.4,2.4,2.1,3.8,1.6,1.4-.5,3.2-.9,3.3-.1s.7,1.1,1,1.8c.3.7-.5,2.1,1.1,2.3,1.6.2,1.9,0,2.2.5.2.5-1.1.3.6.9,1.7.6,2.1.3,2.4.8.3.5,2.8,3.4,3.3,3.7.6.2,2.4.3,3.4,1.1,1,.8,2.8,1.9,3.9,1.9s1.8.5,2.3.9c.5.5,2.3,1.4,3.6,1.5s1.3-.1,3.9,2.1c2.6,2.2,3.6,3.6,4.7,3.7,1.1.1,4.1.3,5.3.5,1.1.1,1.9.5,3.4.3,1.5-.1,1.7,1,2.4,1.9s.8,1.9,2.6,1.9,3.8.5,3.9.9c.1.5.6,2.5.6,3s.8,1.6.9,1.9c.1.3-.9.6-1.8,1.4-.9.8-2.1.9-2.6,1.7-.6.8-2.8.7-2.6,4.5.1,3.8,1.1,6.8.5,7.8-.7,1-2.2.9-2.2,1.5s.2.8-.2,1.7c-.5.9-2.9,1.4-3.2,1.6s-1.6,1.3-1.6,1.3c0,0-3.4,3.3-4.4,3.2-.9-.1-1.9-1.4-2.1.8-.1,2.2-.3,2.2-1.7,2.8-1.4.6-2.6,2.3-3.4,2.5-.8.2-.5-.1-2.8.9s-3.6,1.1-4.1,2.2c-.6,1-2.3,2.3-2.5,2.6-.2.3-1.4.1-1.1,1.6.2,1.5.3,2.1-.3,2.5-.7.5-1.8,1-2.6,2.1-.8,1-1.7.7-2.6.7s-3.6.3-4.2.7c-.7.3-4,1.8-4.4,2.4-.3.6-1.1,1.8-2.6,2.4s-3.1,1.9-4.4.2c-1.3-1.7-3.2-1.8-2.4-3.9s1.3-4.2,2.6-4.7c1.4-.5,2.4-.2,3-1.3.6-1-.6-3.9-.6-3.9,0,0,.1-1.1-.7-1.8-.8-.7-3.1-2.2-3-2.9.1-.7.1-.8.2-2.4.1-1.6-.8-3.1-.7-4.7s-.2-2.1-.8-2.8c-.6-.7-.9.9-.8-1.6.1-2.5-.3-3.9-.9-4.8-.6-.9-2.8-1.4-3-2.4s-.6-2.2-1.4-4c-.8-1.8-1.4-1.7-1.9-2.8-.6-1-1.1-2.4-2.2-3.5-1.1-1.1-1.8-2.3-4.4-3.4-2.6-1.1-4.4-2.9-5.3-5-.9-2.1-2.3-.5-3.2-1.4s-1.8-2.1-1.8-3.1,1.1-2.9-1.2-4.6-3.4-.9-2.8-2.6c.6-1.7.5-2.1.2-2.9s-.9-2.4-1.7-4.1-1.8-1.1-1.8-3.5-.6-3.5-1.5-4.9c-.4-.7-.6-.7-.7-.8-.1,0-.1-.3-.4-1.4-.5-2.1-.2-3.1-1.4-3.8-1.2-.8-4.1-.5-3.7-2.4.5-2,.6-1.1-.2-3.2s-.6-2.6-.8-3.7-1.2-.3-2-2.6c-.8-2.3,0-3.1.2-3.8.2-.8.6-.6.2-2-.5-1.4-.9-2.1-.9-2.8s2.1-.6-1.5-1.8c-3.7-1.2-2.9-.8-3.2-3.4-.3-2.6-.5-4.3-1.4-7.2s1.1-6.2,1.1-6.2l-.2.2ZM882.3,1026.5c2,1.7,2.2,1.4,2.1,2-.1.6,0,1,0,1.4s-.5,1.2-.5,1.2c0,0-.5,0-.9-.4-.3-.4-1.6-1.6-1.8-2.1s-.7-.7-.3-1.2c.4-.4,1.4-.9,1.4-.9ZM918.7,917.3c1.8,5.5,6.4,10.1,6,13.8-.5,3.7-.5,4.6-1.4,7.3-.9,2.8-3.7,3.7-3.2,6s1.8,3.2,2.3,5,1.8,4.1,1.8,5.5.5,2.8-.5,4.1c-.9,1.4-.5,3.7-.5,3.7,0,0,1.8,1.4,1.8,3.2s-1.8,5-3.2,4.6c-1.4-.5-3.7-2.8-5.5-3.2-1.8-.5-.9-1.4-3.7.5-2.8,1.8-6,3.2-6,3.2l-9.2,4.6s-3.2-3.2-3.7-.9-2.3,8.7-2.3,8.7c0,0,0,.9-1.8,1.4-1.2.3-1.4-.6-1.6-.6,0,0-.1.3-.3,1-.5,2.3-1.8,5.5-1.8,5.5l-6.4,3.7s-5,1.8-4.6,4.6c.5,2.8-3.2,5.5-1.8,7.3s-.5.9,1.4,5c1.8,4.1.5,6,2.3,7.3,1.8,1.4,3.2,4.1,3.2,4.1l1.4,2.3s-1.4,2.8-3.2,0c-1.8-2.8-2.8-3.7-3.7-5.5s-2.8-.5-2.8-4.6-.5-2.3-1.4-5-1.4-1.4-1.4-5.5,3.2-.9-1.4-4.6c-4.6-3.7-5.2-.5-6-5.5s36.6-69.2,36.6-69.2l20.3-7.8h.3Z"/>
    </g>
  </g>
</svg>